<svg version="1.1" id="Layer_1" xmlns="http://www.w3.org/2000/svg" xmlns:xlink="http://www.w3.org/1999/xlink" x="0px" y="0px"
	 width="100%" viewBox="0 0 600 511" enable-background="new 0 0 600 511" xml:space="preserve">
<path fill="#47704C" opacity="1.000000" stroke="none" 
	d="
M354.000000,512.000000 
	C237.359467,512.000000 121.218918,511.983887 5.078465,512.083252 
	C1.826558,512.085999 0.893580,511.664917 0.896132,508.080139 
	C1.015462,340.451233 1.016893,172.822281 0.891687,5.193424 
	C0.888880,1.434546 1.850810,0.914107 5.304786,0.915764 
	C202.427063,1.010315 399.549377,1.009359 596.671631,0.922014 
	C600.055542,0.920515 601.116394,1.342640 601.113403,5.169865 
	C600.981995,172.798721 600.985168,340.427673 601.101318,508.056580 
	C601.103760,511.593140 600.247681,512.092163 596.945068,512.087585 
	C516.130188,511.975525 435.315063,512.000000 354.000000,512.000000 
z"/>
<path fill="#4A976F" opacity="1.000000" stroke="none" 
	d="
M67.560989,339.142700 
	C62.193443,329.707245 60.461082,319.320312 58.146381,309.193298 
	C55.045452,295.626434 53.643391,281.814789 52.849728,267.859497 
	C50.973846,234.875046 56.152153,203.018829 67.213852,172.129562 
	C76.393288,146.496445 89.501556,122.957703 106.682930,101.637436 
	C122.116684,82.485764 139.741852,65.782555 159.891220,51.831707 
	C181.613144,36.792061 205.231033,25.501446 230.633057,18.032543 
	C244.660843,13.907990 258.956665,10.663076 273.441895,9.354768 
	C288.263184,8.016108 303.162903,7.414059 318.187592,8.701121 
	C333.452454,10.008757 348.472809,12.133077 363.251984,15.926634 
	C396.177917,24.378159 426.294250,38.897858 453.044617,59.812374 
	C485.668274,85.318832 510.876221,116.963669 527.848083,154.843399 
	C537.526306,176.444427 543.987976,199.014557 547.131714,222.581589 
	C549.487244,240.239532 550.039307,257.926117 548.831116,275.593597 
	C547.677795,292.458923 544.666687,309.126923 539.721313,325.365356 
	C538.369141,329.805389 536.859558,334.197510 535.129517,338.837769 
	C532.970276,339.541626 531.585938,338.476532 530.315369,337.450623 
	C523.836670,332.219177 517.427551,326.906921 511.360687,321.188538 
	C508.403534,318.401276 507.462952,315.201599 508.288483,311.249237 
	C512.259949,292.234314 509.418304,273.465820 506.169647,254.707733 
	C504.316284,244.006180 499.310883,235.692032 488.951294,231.286392 
	C484.782990,229.513748 483.531219,226.769455 484.551056,222.128784 
	C486.687225,212.408096 484.835663,202.723587 481.663055,193.615677 
	C471.863220,165.482178 451.673096,148.724106 422.911407,142.031540 
	C405.091980,137.885147 387.423096,138.697922 370.303680,145.210602 
	C350.335938,152.806900 336.977905,167.280563 328.989716,186.874161 
	C326.890289,192.023727 326.243195,197.521576 326.299988,203.047333 
	C326.338379,206.786194 324.792236,209.324585 321.188324,209.946075 
	C315.626129,210.905258 312.136475,214.455231 308.807800,218.547897 
	C302.189728,226.684967 299.810425,226.732361 293.035095,218.542801 
	C289.647400,214.447968 286.072662,211.029114 280.633972,209.911819 
	C277.327057,209.232468 275.802399,206.919998 275.470764,203.453171 
	C272.363129,170.966873 250.788010,147.469498 218.098007,141.459106 
	C187.350067,135.805786 159.876343,143.735474 137.338715,164.960159 
	C123.151207,178.321167 117.057091,196.369247 116.658440,216.029434 
	C116.614288,218.206894 116.834770,220.366318 117.548683,222.435608 
	C118.831673,226.154419 117.924362,229.422882 114.339539,230.826370 
	C98.007385,237.220642 95.657616,251.589691 93.767113,266.231293 
	C91.757629,281.794434 90.324585,297.373322 93.866341,312.939545 
	C94.324249,314.952087 94.200279,317.093445 92.725693,318.626617 
	C85.238876,326.410889 77.483376,333.895111 67.560989,339.142700 
z"/>
<path fill="#FEFEFE" opacity="1.000000" stroke="none" 
	d="
M67.140930,339.432281 
	C74.912788,332.503265 82.598541,325.880951 90.421715,319.425201 
	C92.636047,317.597900 93.017273,315.863068 92.502319,313.003571 
	C88.263939,289.468323 90.207375,266.361786 97.690720,243.652908 
	C99.789963,237.282578 104.866669,234.207260 110.230652,231.555801 
	C115.194695,229.102036 116.840828,226.895233 115.784767,220.359222 
	C113.660164,207.209915 117.321922,194.401245 123.180061,182.304626 
	C134.769501,158.373245 155.348801,146.753281 179.913818,140.830078 
	C202.849731,135.299683 225.250824,137.203583 245.144272,150.449844 
	C264.028625,163.024170 277.141541,179.948349 277.102631,204.204407 
	C277.099487,206.163681 277.133942,208.205032 279.598328,208.282532 
	C288.128693,208.550720 291.985352,215.306503 296.895752,220.544357 
	C301.077515,225.005005 300.967102,225.089661 305.084625,220.443924 
	C307.071991,218.201599 309.135376,216.026443 311.112854,213.775604 
	C313.620667,210.921082 316.519501,208.958221 320.490723,208.712860 
	C322.899780,208.563995 325.051849,207.938522 324.916412,204.605591 
	C324.042114,183.094650 335.219879,167.235580 350.726746,154.670502 
	C384.371307,127.408623 444.875793,133.479324 472.506622,171.966599 
	C481.612610,184.650436 486.056671,198.897217 486.867310,214.368301 
	C486.979797,216.515533 487.426941,219.061600 486.506805,220.770111 
	C483.490540,226.370804 486.259552,228.921234 490.976196,230.807190 
	C504.113708,236.060242 506.856415,247.806366 508.715302,259.824524 
	C511.518280,277.946259 513.730530,296.144470 509.128784,314.332672 
	C508.485474,316.875366 509.958252,318.039459 511.455811,319.326447 
	C519.031494,325.836853 526.634277,332.315704 534.532166,338.934814 
	C534.365112,340.654663 533.893494,342.245361 533.175293,344.106232 
	C530.596313,345.277100 529.144287,343.704224 527.667236,342.410583 
	C520.025513,335.717926 512.461121,328.937653 504.867889,322.190247 
	C502.199493,319.819092 501.363831,317.099396 502.157349,313.687592 
	C506.924561,293.190918 503.582886,272.965759 500.139618,252.729614 
	C498.395996,242.482361 490.654968,238.022537 482.466400,233.928192 
	C481.603455,233.496704 480.467896,233.036514 479.737640,234.046539 
	C478.757751,235.401733 479.706879,236.656647 480.463257,237.687149 
	C485.859467,245.039230 488.419037,253.422836 489.201233,262.351227 
	C490.801514,280.617676 489.264038,298.141327 478.703674,314.144531 
	C471.389282,325.228729 460.545593,330.966522 448.845825,334.722168 
	C416.350098,345.153168 383.827148,344.707825 352.038727,331.603271 
	C340.556000,326.869629 330.651459,319.260529 321.924744,310.473572 
	C312.614929,301.099548 308.378937,289.189148 307.454010,276.186401 
	C305.714508,251.731827 314.258972,231.817596 334.237061,217.153641 
	C334.639984,216.857895 335.061157,216.576294 335.410126,216.221786 
	C336.436493,215.179077 338.166931,214.152863 337.353241,212.549637 
	C336.392487,210.656540 334.725189,212.096725 333.402008,212.493774 
	C332.287750,212.828110 331.213562,213.431824 330.061584,213.498016 
	C319.918488,214.080826 313.552917,220.463959 307.665405,227.768112 
	C301.453003,235.475281 300.603577,235.426086 294.290466,227.951279 
	C292.248230,225.533249 290.176910,223.148575 288.028473,220.820084 
	C284.723877,217.238541 280.784912,215.060272 275.955688,214.365341 
	C272.984802,213.937805 270.092194,213.142014 267.295074,212.006470 
	C266.215881,211.568359 264.934753,211.158203 264.227478,212.547943 
	C263.544708,213.889557 264.640228,214.707428 265.484528,215.479340 
	C266.716919,216.606094 268.195099,217.413147 269.518280,218.423370 
	C295.544037,238.293289 299.807343,270.519989 289.822784,295.752808 
	C286.765503,303.479065 281.183228,309.407257 275.016510,314.958344 
	C254.945175,333.026001 230.942276,340.511169 204.554138,341.606537 
	C188.830170,342.259277 173.281113,340.846344 158.067535,336.487671 
	C151.618774,334.640076 145.519455,331.957794 139.619308,328.879211 
	C124.864143,321.180145 117.790413,307.832703 114.033501,292.462372 
	C110.988312,280.003906 111.268883,267.384247 113.878372,254.813400 
	C115.155128,248.662720 117.796837,243.169159 121.336006,238.036240 
	C122.153496,236.850616 123.478905,235.361542 122.194244,234.010406 
	C120.926247,232.676758 119.420418,234.031647 118.093956,234.599213 
	C108.110092,238.870987 102.352127,246.020081 100.847847,257.144867 
	C99.217606,269.201172 97.603531,281.252869 97.062256,293.387939 
	C96.774048,299.849335 97.980522,306.342194 99.545029,312.663422 
	C100.623253,317.019836 99.538681,320.225708 96.022766,323.222870 
	C89.056442,329.161346 82.358948,335.419281 75.418503,341.396790 
	C73.780380,342.807587 72.239784,344.382172 69.511192,344.513062 
	C68.449356,342.900574 67.778137,341.351349 67.140930,339.432281 
z"/>
<path fill="#4A976F" opacity="1.000000" stroke="none" 
	d="
M518.879639,374.771179 
	C513.872070,386.167145 506.954041,396.106384 499.657562,405.764618 
	C479.396820,432.583466 454.772644,454.613617 425.721069,471.497406 
	C400.247742,486.301636 372.949036,496.177307 343.808044,501.168976 
	C326.710510,504.097687 309.572174,505.629883 292.302216,504.915741 
	C265.810669,503.820282 240.064545,498.868011 215.070679,489.676208 
	C196.060379,482.684906 178.362762,473.386627 161.522369,462.284485 
	C147.199249,452.841858 134.074799,441.824768 122.296562,429.480194 
	C106.929535,413.374176 93.368599,395.744843 83.051224,375.463318 
	C83.598007,373.174774 85.276611,372.327148 86.843887,371.397766 
	C103.177864,361.711884 119.555824,352.104370 136.181946,342.921356 
	C139.373016,341.158844 142.324265,340.972504 145.725342,342.048431 
	C152.390015,344.156769 158.762177,347.163849 165.679977,348.497345 
	C168.963455,349.130219 170.647079,351.371429 170.458160,354.568085 
	C170.018524,362.006805 174.381531,367.503540 177.915146,373.239471 
	C180.822906,377.959503 184.826248,378.422577 188.705200,374.461487 
	C191.601395,371.503967 194.518799,370.486328 198.500076,371.164062 
	C202.238113,371.800354 205.567032,370.566162 207.446976,367.098328 
	C209.355927,363.576996 207.687790,360.719330 205.109497,358.206818 
	C203.891159,357.019592 202.764435,355.650848 203.395264,353.814301 
	C204.129486,351.676697 206.140015,351.660248 207.963669,351.487579 
	C209.289917,351.362000 210.627457,351.408447 211.956894,351.301544 
	C218.755615,350.754974 218.093109,351.097015 221.110031,356.960480 
	C224.777344,364.087921 231.182999,368.696442 238.903381,371.222534 
	C239.212875,371.323761 239.585175,371.363403 239.894730,371.280304 
	C245.853394,369.680817 251.177017,366.726349 255.754349,362.729889 
	C257.869110,360.883484 257.407227,357.927643 256.298340,355.238159 
	C251.481293,343.555023 251.522247,343.543243 262.031860,337.237579 
	C272.795563,330.779510 282.768036,323.444183 290.967163,313.723785 
	C298.302307,305.027618 303.415070,304.932983 310.495789,313.308105 
	C319.255798,323.669495 329.976013,331.388336 341.521515,338.181671 
	C349.444122,342.843323 349.987274,344.455444 346.762543,353.008728 
	C343.525879,361.593567 344.159515,363.027496 352.890930,366.824799 
	C353.504059,367.091400 354.099823,367.380493 354.664490,367.737457 
	C362.395966,372.625122 364.261658,372.574860 371.357422,366.850555 
	C375.849091,363.227020 381.073395,360.133423 381.898285,353.558380 
	C381.978119,352.922058 382.396698,352.331909 382.921631,351.879669 
	C384.481964,350.535553 396.455994,351.171661 397.927032,352.689514 
	C399.011139,353.808105 398.967499,355.067627 398.315430,356.367981 
	C397.705872,357.583710 396.594269,358.390869 395.768311,359.428986 
	C392.070740,364.076385 393.935150,369.548004 399.708679,371.009949 
	C401.350311,371.425629 403.031128,371.388092 404.674469,371.083557 
	C407.697052,370.523438 410.037354,371.320068 412.312317,373.564606 
	C417.541199,378.723694 421.291443,378.224182 425.041229,371.858521 
	C428.324615,366.284607 431.758148,360.710388 431.613586,353.801605 
	C431.559937,351.237549 433.023254,349.226074 435.628326,348.728729 
	C443.051025,347.311554 449.769318,343.785706 456.996185,341.792633 
	C459.877411,340.998016 462.470703,341.105408 465.163818,342.575134 
	C482.274597,351.913300 498.983765,361.944305 515.805115,371.782013 
	C516.958740,372.456696 518.057312,373.216949 518.879639,374.771179 
z"/>
<path fill="#2B1010" opacity="1.000000" stroke="none" 
	d="
M68.922592,344.705078 
	C78.533661,336.259888 87.931274,328.052063 97.376564,319.899475 
	C98.790443,318.679077 99.260017,317.543701 98.720642,315.609070 
	C92.654060,293.849152 96.730400,272.364075 100.712776,250.905136 
	C102.012970,243.899094 105.992821,238.899948 112.622437,235.962219 
	C115.030090,234.895325 117.194664,233.258881 119.416840,231.801025 
	C121.183739,230.641846 122.916771,230.504852 124.350670,232.105499 
	C125.742699,233.659378 125.504173,235.357895 124.335014,237.100403 
	C108.131828,261.249268 109.940483,296.870636 128.736496,318.816132 
	C134.495590,325.540222 142.423950,329.401764 150.637177,332.210358 
	C184.897614,343.926025 219.035095,343.852264 252.177521,328.658661 
	C265.168152,322.703308 276.997650,314.108948 284.902130,301.645447 
	C301.423920,275.594513 292.962860,236.180954 267.429230,218.859741 
	C266.053589,217.926544 264.653229,217.026474 263.314606,216.042679 
	C261.364990,214.609863 261.064545,212.642136 262.368347,210.789444 
	C263.553284,209.105667 265.397797,208.908661 267.258667,209.964584 
	C268.409607,210.617630 269.572266,211.827194 270.721710,211.817780 
	C284.499786,211.704834 291.320282,221.813599 298.803619,230.851074 
	C300.486481,232.883453 301.257965,233.432098 303.047363,230.977768 
	C305.293549,227.896896 308.187378,225.294983 310.523499,222.271454 
	C315.018921,216.453293 320.572784,212.720505 328.104980,212.337662 
	C330.279236,212.227173 332.305054,211.654160 334.146271,210.317093 
	C336.141205,208.868393 338.377197,208.728287 339.752136,211.061096 
	C341.070343,213.297638 340.089600,215.248077 337.942749,216.540573 
	C332.615631,219.747726 328.058807,223.833115 323.923340,228.455780 
	C306.294983,248.160843 303.093994,281.070618 317.873657,302.718414 
	C327.473999,316.779999 341.492493,326.148621 357.381836,331.985870 
	C388.689240,343.487335 420.216095,343.086121 451.661133,332.142273 
	C474.908936,324.051300 485.089874,306.288208 487.984833,283.110504 
	C489.345306,272.218170 488.278656,261.518524 485.407043,250.984360 
	C484.036102,245.955215 481.602173,241.427017 478.043335,237.572311 
	C476.471497,235.869766 476.029999,233.937943 477.497070,232.186905 
	C479.007721,230.383850 480.926636,230.716965 482.864990,231.975372 
	C485.927002,233.963364 489.028473,235.921326 492.260468,237.610260 
	C498.399139,240.818115 500.713226,246.628265 501.716492,252.686996 
	C505.193604,273.685364 509.322845,294.747650 503.107788,315.967834 
	C502.490845,318.074310 503.582214,319.005463 504.857208,320.121521 
	C514.000427,328.125031 523.128296,336.146118 532.594971,344.268982 
	C536.790100,348.459473 541.358826,351.710632 545.903748,354.921844 
	C549.476013,357.445862 551.397095,359.546478 549.087769,364.377258 
	C543.156616,376.784454 544.682068,376.502747 533.341736,373.062775 
	C529.944763,372.032288 526.494141,370.640320 522.345459,370.945862 
	C519.108643,371.003662 516.844604,369.607056 514.518555,368.290894 
	C499.152527,359.595825 483.959442,350.601654 468.807587,341.544769 
	C464.657196,339.063934 461.070496,338.702911 456.649780,340.718292 
	C449.965881,343.765503 442.779846,345.397583 435.576233,346.826416 
	C428.690460,348.192261 428.516357,348.206573 428.658508,355.066833 
	C428.763153,360.118256 427.417023,364.597290 424.675354,368.730194 
	C422.830719,371.510834 421.066345,374.805389 416.969818,373.809174 
	C413.094696,372.866821 413.803284,369.290070 413.789368,366.022949 
	C410.156830,366.451599 407.156281,367.978180 403.951111,368.636566 
	C400.782349,369.287506 397.699829,369.385010 396.422913,365.768829 
	C395.241547,362.423248 397.370789,360.492493 400.209045,359.184723 
	C401.394928,358.638306 402.571564,358.221954 403.048828,356.669220 
	C405.144745,349.850586 405.534851,349.610626 412.542511,349.504822 
	C413.207306,349.494781 413.873383,349.532379 414.303345,349.480743 
	C409.263977,349.451752 403.993713,349.626251 398.720551,349.613922 
	C393.390045,349.601440 388.055847,349.744720 382.796997,348.618622 
	C379.717438,347.959198 378.739655,349.347565 378.521362,352.335724 
	C378.058563,358.671295 370.635895,367.273102 364.566681,368.916046 
	C362.109955,369.581116 359.725739,369.343964 358.415161,366.972412 
	C357.105316,364.602356 355.481537,363.670776 352.787018,363.990479 
	C350.330811,364.281891 348.006012,363.616699 347.128448,360.950073 
	C346.207733,358.152374 347.427216,356.093414 349.926178,354.740295 
	C351.126984,354.090057 351.973419,353.600525 351.749268,351.756592 
	C351.106689,346.471130 352.963837,344.574585 358.230988,344.503510 
	C360.407867,344.474121 362.523468,345.024170 364.751373,345.023102 
	C362.479767,343.956329 360.102692,343.164703 357.714233,342.429871 
	C342.725464,337.818512 330.150787,329.237610 318.897095,318.595428 
	C314.057343,314.018646 309.306946,309.356079 304.300171,304.953064 
	C302.018494,302.946503 300.187195,302.728058 297.795227,304.749359 
	C294.865356,307.225250 291.939667,309.691284 289.303131,312.476807 
	C274.816071,327.782776 258.039276,339.394409 237.320068,344.816223 
	C239.641235,344.822418 241.890671,344.331909 244.167648,344.485229 
	C249.900330,344.871338 251.481567,348.016205 248.514572,353.279022 
	C248.642822,354.132202 249.444885,353.817047 249.932678,353.967194 
	C252.824478,354.857361 255.479797,356.156799 254.922302,359.740967 
	C254.350433,363.417542 251.572266,364.462372 248.206207,364.069061 
	C246.196106,363.834167 244.884094,364.344696 243.569168,366.074951 
	C240.773056,369.754150 238.422272,370.156464 234.621124,367.498840 
	C228.899857,363.498688 222.714172,359.704285 223.311523,351.194397 
	C223.491013,348.637634 221.688431,348.184570 219.602310,348.572418 
	C209.012512,350.541321 198.329239,349.172943 188.517761,349.525513 
	C190.138016,349.593201 192.625198,349.220764 194.990768,350.161469 
	C196.791138,350.877411 198.461456,352.059875 198.545822,353.996796 
	C198.681213,357.105774 200.269730,358.686188 202.840454,360.022949 
	C205.012772,361.152496 206.579819,363.137726 205.513870,365.790680 
	C204.442245,368.457733 202.049774,369.285706 199.340378,368.959137 
	C195.706909,368.521210 192.422363,366.647614 189.033173,366.079620 
	C188.484787,366.436035 188.271362,366.699585 188.266220,367.046509 
	C188.226822,369.706512 188.618622,372.696747 185.311646,373.738190 
	C181.722580,374.868469 179.705933,372.383453 178.040390,369.803528 
	C174.941193,365.002838 172.224335,360.083588 173.253723,353.960144 
	C173.907166,350.073303 172.447876,347.780609 168.149475,347.090027 
	C159.581497,345.713379 151.205811,343.449036 143.249313,339.902191 
	C139.960831,338.436249 137.197693,339.272034 134.289948,340.949402 
	C118.277328,350.186310 102.532547,359.885376 86.315186,368.768311 
	C84.580498,369.718414 82.967422,371.025299 80.437218,370.840759 
	C74.659470,370.541290 69.800476,372.983643 64.765244,374.293427 
	C60.334011,375.446045 57.863991,374.922272 55.645267,370.603485 
	C54.299915,367.984772 53.401043,365.141418 51.843277,362.677979 
	C49.994289,359.753998 52.056492,358.301270 53.756821,356.891479 
	C58.667660,352.819824 63.724876,348.924774 68.922592,344.705078 
z"/>
<path fill="#F5F6F5" opacity="1.000000" stroke="none" 
	d="
M80.368469,371.088989 
	C98.662209,360.019440 117.246429,349.129028 135.815186,338.212341 
	C137.858521,337.011078 139.582367,336.083679 142.179825,337.496643 
	C150.904175,342.242645 160.495773,344.475494 170.230576,345.790100 
	C173.745132,346.264740 174.983307,347.666443 174.603149,350.795654 
	C173.786194,357.520020 175.469620,363.547852 179.192734,369.120697 
	C180.684387,371.353424 182.089462,374.365662 185.279297,372.668976 
	C188.802689,370.794830 187.046860,367.902069 185.570602,365.384125 
	C185.235367,364.812378 184.944199,364.214813 184.211609,362.837158 
	C189.289810,364.417603 193.765579,365.720032 198.175949,367.215332 
	C201.071121,368.196930 203.812119,368.233948 204.633926,364.885437 
	C205.427338,361.652588 202.599762,360.817719 200.099762,360.123291 
	C198.676743,359.727966 197.280396,359.236694 195.835052,358.776886 
	C198.973679,353.640900 197.817047,351.319519 192.112000,351.107513 
	C189.615936,351.014771 187.113815,351.097046 184.615234,351.054413 
	C183.325272,351.032410 181.787811,351.283569 181.933472,349.160522 
	C182.092773,346.838409 183.792694,347.781036 184.894592,347.861298 
	C198.189484,348.829834 211.444138,348.904633 224.534241,346.110229 
	C224.705811,346.664764 224.948303,347.015747 224.878983,347.287048 
	C222.296143,357.395203 229.414688,361.951355 236.029877,366.777985 
	C237.715805,368.008087 239.546158,368.792511 241.531677,367.405365 
	C243.531372,366.008240 243.100433,364.099426 242.256256,362.210144 
	C244.668259,361.753113 246.726425,362.043457 248.853958,362.713989 
	C251.152512,363.438385 253.330872,362.866852 253.982864,360.226746 
	C254.632065,357.597931 252.997116,356.325958 250.634186,355.568787 
	C248.628235,354.925964 246.304855,355.101837 244.530807,353.323456 
	C247.211044,353.031830 249.871155,352.427429 249.535065,349.186554 
	C249.187546,345.835510 246.405411,345.788635 243.787872,346.021851 
	C241.300766,346.243439 238.824783,346.659515 236.334991,346.753326 
	C235.023987,346.802765 232.923752,347.965363 232.500671,346.088043 
	C231.961960,343.697510 234.607834,344.102997 235.969971,343.483551 
	C236.864807,343.076630 237.884811,342.945038 238.848648,342.689728 
	C256.202820,338.092743 270.542969,328.396790 283.428436,316.270813 
	C288.394653,311.597321 293.452484,306.997681 298.105957,302.025085 
	C300.547729,299.415863 301.805756,299.942200 304.000580,302.211945 
	C308.968201,307.349121 314.209717,312.225677 319.418243,317.124878 
	C332.844879,329.754211 348.112671,339.152161 366.178650,343.618561 
	C367.513702,343.948608 369.726257,343.827515 369.428253,345.882019 
	C369.097778,348.160522 367.023987,346.763214 365.803741,346.746185 
	C363.317871,346.711487 360.841064,346.247406 358.353577,346.045593 
	C356.006775,345.855164 353.471222,345.569092 352.499878,348.480133 
	C351.509857,351.447021 354.006653,352.416565 355.978729,353.705902 
	C354.570343,355.631348 352.289032,355.047974 350.541534,355.799805 
	C348.290588,356.768219 347.379822,358.257721 348.021759,360.484711 
	C348.623749,362.573151 350.368408,363.184692 352.384308,362.874390 
	C353.691132,362.673279 354.950775,362.123444 356.258759,361.983215 
	C357.741058,361.824280 358.847992,361.754395 359.111511,364.131897 
	C359.585724,368.410522 362.050171,369.395386 365.655609,366.876526 
	C372.674225,361.972992 380.314880,357.270447 376.470612,345.963226 
	C390.756744,348.908264 404.292877,348.883728 417.860138,347.739227 
	C418.885803,347.652710 419.862274,347.459869 420.004608,348.949585 
	C420.146942,350.439514 419.521423,351.058167 418.037842,351.046082 
	C415.206085,351.023010 412.370422,350.998505 409.542236,351.116302 
	C404.179443,351.339539 403.032471,353.706360 405.954651,358.493195 
	C404.314270,360.039856 402.030762,359.881927 400.104980,360.657410 
	C398.002289,361.504181 396.576813,362.831451 397.374786,365.197388 
	C398.105560,367.364014 399.876862,368.339386 402.149872,367.659424 
	C407.038971,366.196899 411.891602,364.612640 417.014069,362.997833 
	C417.337708,364.668182 416.196747,365.589020 415.654846,366.622894 
	C414.434021,368.952057 413.984253,371.230438 416.606262,372.664886 
	C418.995453,373.971893 420.697754,372.411163 421.932404,370.413666 
	C425.267517,365.017975 428.394379,359.598236 427.273102,352.792786 
	C426.547882,348.390778 427.891113,346.093689 433.102753,345.519440 
	C442.185242,344.518738 451.080719,342.090179 459.244049,337.775238 
	C461.836456,336.404968 463.705933,336.745819 466.035492,338.121918 
	C483.630554,348.515442 501.280090,358.816803 518.925720,369.124512 
	C519.773132,369.619507 520.743652,369.903503 521.787109,370.601776 
	C521.130859,372.195343 520.344360,373.472839 519.283325,374.937561 
	C500.848816,364.704315 482.655579,354.341034 464.569427,343.794189 
	C462.191467,342.407501 460.295624,342.012634 457.637299,342.907715 
	C450.253052,345.394226 443.204956,348.997894 435.359833,349.992554 
	C433.052826,350.285004 432.708099,351.720917 432.916412,353.515015 
	C433.910278,362.074524 428.916290,368.414948 424.684174,374.864288 
	C421.064819,380.379883 414.637573,380.277557 411.209869,374.519836 
	C409.413574,371.502533 407.733551,371.581177 405.245117,372.364594 
	C402.036102,373.374878 399.004822,373.113556 396.137207,371.332794 
	C390.504089,367.834625 390.321747,361.539764 395.808167,357.417084 
	C397.008301,356.515259 398.700714,355.994293 397.964325,354.080231 
	C397.335938,352.446777 395.680115,353.172455 394.456848,353.031555 
	C393.305237,352.898895 392.098938,353.150574 390.967560,352.948395 
	C386.376099,352.127808 384.104797,351.821686 381.799164,358.207672 
	C379.229431,365.324951 371.515106,371.453857 363.206421,372.530579 
	C356.083618,373.453674 350.160736,367.855957 344.815735,363.581726 
	C341.845978,361.206909 341.820343,356.443115 345.182312,353.273926 
	C347.673248,350.925873 346.196014,347.930298 347.139923,345.327179 
	C348.709473,340.998505 344.159546,341.512543 342.257385,340.335175 
	C330.356384,332.968994 318.381348,325.816101 309.742584,314.314362 
	C307.906219,311.869415 304.904724,310.303802 302.456848,308.312378 
	C300.856354,307.010315 299.780579,308.098633 298.533722,309.003479 
	C294.750031,311.749268 291.719147,315.189728 288.589813,318.646393 
	C280.235718,327.874207 269.784515,334.444824 259.069214,340.588226 
	C257.362061,341.566986 253.941803,342.425323 254.322693,343.619629 
	C255.278793,346.617493 254.460571,349.947968 256.279541,352.689453 
	C261.237518,360.161774 258.692383,366.264282 249.942627,367.697754 
	C248.690781,367.902832 247.929031,368.278748 247.079941,369.234375 
	C243.201874,373.599182 238.241638,374.257355 233.439606,370.782684 
	C229.269180,367.764984 225.387726,364.345978 221.403305,361.074188 
	C219.927094,359.862000 218.750366,358.271606 219.078339,356.343750 
	C219.895279,351.541595 217.220184,351.785889 213.883743,352.266449 
	C211.261826,352.644073 208.569336,352.512207 205.913101,352.682983 
	C205.124329,352.733643 204.188324,352.799805 203.899902,353.801575 
	C203.592209,354.870331 203.897537,355.756805 204.853851,356.379639 
	C205.132370,356.561096 205.411819,356.741150 205.692032,356.920013 
	C209.532028,359.371033 211.111542,362.780762 209.566635,367.161621 
	C208.262650,370.859375 203.148575,373.834106 198.882675,372.757385 
	C194.795013,371.725647 192.353287,372.055267 189.563812,375.826904 
	C186.182068,380.399231 180.477753,379.941132 177.359970,375.066406 
	C173.221176,368.595337 167.997574,362.352478 169.046112,353.744171 
	C169.242676,352.130371 169.287979,350.342255 166.845642,350.045013 
	C158.647903,349.047333 151.349823,345.129852 143.582336,342.728027 
	C141.678421,342.139313 140.221024,342.104370 138.440872,343.143433 
	C120.214005,353.782257 101.934441,364.330750 83.331757,375.010529 
	C82.214096,373.831207 81.434258,372.545868 80.368469,371.088989 
z"/>
<path fill="#2E1414" opacity="1.000000" stroke="none" 
	d="
M180.389816,154.115158 
	C165.593109,158.483963 152.288635,164.607834 142.394028,176.467560 
	C132.243744,188.633743 127.601326,202.635437 128.624512,218.453903 
	C128.818802,221.457581 129.033661,224.545319 125.236328,225.048126 
	C120.973045,225.612640 120.464554,222.181961 120.282959,219.116333 
	C119.268623,201.993454 123.821312,186.431046 134.526443,173.043961 
	C148.575546,155.475159 167.814819,147.283752 189.519394,143.949799 
	C207.143692,141.242599 224.170410,143.063217 239.675583,152.208527 
	C257.622314,162.793900 268.630371,178.693130 272.964783,199.123947 
	C273.204834,200.255417 273.210297,201.441055 273.275665,202.604263 
	C273.428528,205.323410 272.276794,207.331360 269.496033,207.518570 
	C266.701721,207.706696 265.364136,205.784561 265.084564,203.137878 
	C263.454803,187.707245 255.472656,175.622437 244.320419,165.633438 
	C230.609894,153.353027 213.991333,149.818771 196.054642,151.628784 
	C190.940460,152.144867 185.882202,153.215317 180.389816,154.115158 
z"/>
<path fill="#2E1414" opacity="1.000000" stroke="none" 
	d="
M471.829712,179.187897 
	C478.671600,190.789505 482.036316,202.958221 481.839111,216.085510 
	C481.834106,216.418655 481.898102,216.765045 481.828583,217.083130 
	C481.137665,220.244797 482.420380,225.129791 477.252563,224.991959 
	C471.982819,224.851425 473.458099,220.512543 473.490692,217.034653 
	C473.697449,194.968048 465.312103,177.014984 446.423706,165.168854 
	C424.560760,151.457199 400.686707,146.474182 375.875366,155.129181 
	C353.925598,162.785980 341.190216,179.408173 336.964447,202.316483 
	C336.426514,205.232834 335.677460,207.810547 332.251221,207.462051 
	C328.754272,207.106354 328.474854,204.267517 328.719666,201.396515 
	C329.472076,192.573242 332.887054,184.695770 337.345703,177.200470 
	C353.332275,150.325699 379.916168,140.153687 409.668457,143.559097 
	C428.166473,145.676361 444.723694,152.304657 459.111938,164.099091 
	C464.145142,168.224945 468.130615,173.387131 471.829712,179.187897 
z"/>
<path fill="#351B1B" opacity="1.000000" stroke="none" 
	d="
M211.430618,212.973663 
	C209.807587,213.477997 208.504883,214.221512 207.424728,212.902374 
	C206.273315,211.496185 207.528656,210.444504 208.195236,209.394547 
	C212.901169,201.982147 216.752625,201.391846 223.206879,207.111679 
	C224.246765,208.033234 226.135269,208.749908 225.332932,210.563248 
	C224.478424,212.494537 222.500275,212.014053 220.942932,211.675247 
	C217.720459,210.974167 214.739960,211.547150 211.430618,212.973663 
z"/>
<path fill="#341B1B" opacity="1.000000" stroke="none" 
	d="
M377.853180,207.853058 
	C385.693939,201.537201 389.854858,202.234329 394.134308,210.285858 
	C394.594696,211.152100 395.367950,211.925491 394.629211,212.961761 
	C393.807617,214.114243 392.679138,214.109665 391.538818,213.564590 
	C387.698669,211.729019 383.732056,211.356064 379.495453,211.808029 
	C376.809845,212.094528 375.058105,210.945923 377.853180,207.853058 
z"/>
<path fill="#2C1313" opacity="1.000000" stroke="none" 
	d="
M201.054443,207.061249 
	C200.729553,211.855011 198.086395,213.476913 194.045731,212.989090 
	C190.446304,212.554550 189.625092,209.844910 189.958572,206.801849 
	C190.354950,203.184998 192.891068,201.758286 196.233978,201.910934 
	C199.080231,202.040909 200.682251,203.810791 201.054443,207.061249 
z"/>
<path fill="#311818" opacity="1.000000" stroke="none" 
	d="
M400.947235,208.710770 
	C400.762512,204.756836 402.461884,202.429306 405.977509,202.259750 
	C409.003387,202.113800 411.470886,203.619186 412.030182,206.950500 
	C412.486084,209.666153 411.678833,212.109863 408.838409,212.886002 
	C405.328033,213.845200 402.220093,213.215225 400.947235,208.710770 
z"/>
<path fill="#301A19" opacity="1.000000" stroke="none" 
	d="
M365.009766,197.112183 
	C368.362213,196.130280 371.075562,196.538239 372.546631,199.497055 
	C373.625977,201.667969 373.538879,204.136536 371.581360,205.941727 
	C369.718750,207.659424 367.400726,207.966415 365.063049,206.987518 
	C361.141266,205.345291 361.005310,201.581482 365.009766,197.112183 
z"/>
<path fill="#311B1A" opacity="1.000000" stroke="none" 
	d="
M237.125061,207.086655 
	C233.701523,208.322357 231.078690,207.536209 229.533951,204.773972 
	C228.498932,202.923203 228.338333,200.709610 229.951447,198.761093 
	C231.616486,196.749832 233.655396,196.274429 236.063965,196.930771 
	C240.577698,198.160843 241.258942,202.983551 237.125061,207.086655 
z"/>
</svg>